<svg width="29" height="24" viewBox="0 0 29 24" fill="none" xmlns="http://www.w3.org/2000/svg">
<g clip-path="url(#clip0_321_1360)">
<path d="M0 1.5C0 1.10218 0.152767 0.720644 0.424695 0.43934C0.696623 0.158035 1.06544 0 1.45 0L27.55 0C27.9346 0 28.3034 0.158035 28.5753 0.43934C28.8472 0.720644 29 1.10218 29 1.5C29 1.89782 28.8472 2.27936 28.5753 2.56066C28.3034 2.84196 27.9346 3 27.55 3H1.45C1.06544 3 0.696623 2.84196 0.424695 2.56066C0.152767 2.27936 0 1.89782 0 1.5ZM0 10.5C0 10.1022 0.152767 9.72064 0.424695 9.43934C0.696623 9.15804 1.06544 9 1.45 9H8.7C9.08456 9 9.45338 9.15804 9.7253 9.43934C9.99723 9.72064 10.15 10.1022 10.15 10.5C10.15 10.8978 9.99723 11.2794 9.7253 11.5607C9.45338 11.842 9.08456 12 8.7 12H1.45C1.06544 12 0.696623 11.842 0.424695 11.5607C0.152767 11.2794 0 10.8978 0 10.5ZM0 19.5C0 19.1022 0.152767 18.7206 0.424695 18.4393C0.696623 18.158 1.06544 18 1.45 18H10.15C10.5346 18 10.9034 18.158 11.1753 18.4393C11.4472 18.7206 11.6 19.1022 11.6 19.5C11.6 19.8978 11.4472 20.2794 11.1753 20.5607C10.9034 20.842 10.5346 21 10.15 21H1.45C1.06544 21 0.696623 20.842 0.424695 20.5607C0.152767 20.2794 0 19.8978 0 19.5Z" fill="#595959"/>
<path fill-rule="evenodd" clip-rule="evenodd" d="M18.8499 21C20.3289 21 21.7021 20.5425 22.8476 19.7565L26.5248 23.5605C26.7969 23.8418 27.1658 23.9997 27.5504 23.9996C27.9351 23.9994 28.3039 23.8412 28.5758 23.5598C28.8477 23.2783 29.0004 22.8966 29.0002 22.4987C29.0001 22.1008 28.8472 21.7193 28.5751 21.438L24.8993 17.6355C25.7897 16.242 26.2048 14.5809 26.079 12.9157C25.9532 11.2504 25.2936 9.67619 24.2048 8.44271C23.1161 7.20922 21.6604 6.38704 20.0686 6.10653C18.4769 5.82601 16.8401 6.10322 15.418 6.89419C13.9958 7.68516 12.8696 8.94463 12.2178 10.4729C11.5661 12.0012 11.4262 13.7108 11.8204 15.3306C12.2145 16.9504 13.12 18.3878 14.3934 19.4149C15.6668 20.4419 17.2352 20.9997 18.8499 21ZM18.8499 18C20.0036 18 21.1101 17.5259 21.9258 16.682C22.7416 15.8381 23.1999 14.6935 23.1999 13.5C23.1999 12.3065 22.7416 11.1619 21.9258 10.318C21.1101 9.47412 20.0036 9.00001 18.8499 9.00001C17.6962 9.00001 16.5898 9.47412 15.774 10.318C14.9582 11.1619 14.4999 12.3065 14.4999 13.5C14.4999 14.6935 14.9582 15.8381 15.774 16.682C16.5898 17.5259 17.6962 18 18.8499 18Z" fill="#595959"/>
</g>
<defs>
<clipPath id="clip0_321_1360">
<rect width="29" height="24" fill="white"/>
</clipPath>
</defs>
</svg>
